<?xml version="1.0" encoding="UTF-8" standalone="no"?>
<!-- Created with Inkscape (http://www.inkscape.org/) -->

<svg
   xmlns:dc="http://purl.org/dc/elements/1.1/"
   xmlns:cc="http://creativecommons.org/ns#"
   xmlns:rdf="http://www.w3.org/1999/02/22-rdf-syntax-ns#"
   xmlns:svg="http://www.w3.org/2000/svg"
   xmlns="http://www.w3.org/2000/svg"
   xmlns:sodipodi="http://sodipodi.sourceforge.net/DTD/sodipodi-0.dtd"
   xmlns:inkscape="http://www.inkscape.org/namespaces/inkscape"
   id="svg3014"
   height="22"
   width="26"
   version="1.1"
   inkscape:version="0.48.3.1 r9886"
   sodipodi:docname="battery-060-charging.svg">
  <defs
     id="defs3036" />
  <sodipodi:namedview
     pagecolor="#ffffff"
     bordercolor="#666666"
     borderopacity="1"
     objecttolerance="10"
     gridtolerance="10"
     guidetolerance="10"
     inkscape:pageopacity="0"
     inkscape:pageshadow="2"
     inkscape:window-width="1366"
     inkscape:window-height="744"
     id="namedview3034"
     showgrid="true"
     inkscape:zoom="58.322167"
     inkscape:cx="8.966755"
     inkscape:cy="12.780743"
     inkscape:window-x="0"
     inkscape:window-y="24"
     inkscape:window-maximized="1"
     inkscape:current-layer="svg3014">
    <inkscape:grid
       type="xygrid"
       id="grid3038" />
  </sodipodi:namedview>
  <metadata
     id="metadata3019">
    <rdf:RDF>
      <cc:Work
         rdf:about="">
        <dc:format>image/svg+xml</dc:format>
        <dc:type
           rdf:resource="http://purl.org/dc/dcmitype/StillImage" />
        <dc:title />
      </cc:Work>
    </rdf:RDF>
  </metadata>
  <path
     id="rect2401-5"
     style="opacity:0.3;fill:white"
     d="m 25.916957,13 0,-2 c -0.883161,0.209554 -1.067955,-0.253575 -0.958636,-1 l -1.393639,0 0.0042,4 1.389423,0 c 0.01131,-0.483436 -0.1548,-1.05327 0.958652,-1 z M 24,7.454898 24,6 4.8335973,6 C 3.7717786,6 3.3508556,6.988732 2.916957,8 c -1.169096,2.724759 -1.2678604,5.396333 0,8 0.4810068,0.987792 0.8548216,2 1.9166403,2 L 24,18 24,16.65028 C 21.398727,13.758521 21.4939,10.588908 24,7.454898 z M 4.8335973,7 23.04168,7 c -2.414022,3.391915 -2.576539,6.729192 0,10 L 4.8335973,17 c -0.5309094,0 -0.7315088,-0.4991 -0.9583201,-1 -1.2074863,-2.666667 -1.1134243,-5.333333 0,-8 C 4.0873371,7.492113 4.3026879,7 4.8335973,7 z"
     inkscape:connector-curvature="0"
     sodipodi:nodetypes="cccccccccsssscccsccssss" />
  <path
     id="rect2401"
     style="fill:#3c3c3c"
     d="m 24.916668,13 c 0.08774,-0.802491 -0.297528,-1.149028 0.958334,-1 l 0,-2 C 24.561259,10.126179 25.007516,9.6703344 24.916668,9 l -1.330509,0 0.02863,4 z M 23.958334,5 4.7913398,5 C 3.7295058,5 3.3517297,6.0101213 2.874672,7 c -1.4989138,3.110193 -0.8665782,6.026453 0,8 0.4423018,1.007299 0.8548338,2 1.9166678,2 l 19.1669942,0 0,-1.448376 c -2.5236,-2.719335 -2.511062,-6.5283858 0,-9.14265 8.1e-5,-2.6666666 0,1.2576927 0,-1.408974 z M 4.7913398,6 23,6 c -2.632044,3.3333333 -2.502647,6.666667 0,10 L 4.7913398,16 C 4.2604228,16 4.0849346,15.487657 3.8330059,15 2.5611205,12.538021 2.514946,9.5267612 3.8330059,7 4.0868283,6.5134139 4.2604228,6 4.7913398,6 z"
     inkscape:connector-curvature="0"
     sodipodi:nodetypes="ccccccccssssccccsccssss" />
  <g
     id="g4363"
     style="opacity:0.4"
     transform="translate(17,1.4800924)">
    <path
       style="opacity:0.3;fill:white;fill-opacity:1;stroke:none"
       d="m -12,14 8.7480332,0 c -0.94759,-2.394753 -0.984385,-4.7170175 -0.06963,-7.0000005 l -8.6784032,0 C -13.134104,9.3417845 -13.057012,11.678219 -12,14 z"
       id="path2989"
       inkscape:connector-curvature="0"
       sodipodi:nodetypes="ccccc" />
    <path
       sodipodi:nodetypes="ccccc"
       inkscape:connector-curvature="0"
       id="path2987"
       d="m -12,13 8.729849,0 C -4.177613,11.162832 -4.251812,8.2412993 -3.31447,6 L -12,6 c -1.100974,2.0210252 -1.057137,4.934884 0,7 z"
       style="fill:#3c3c3c;fill-opacity:1;stroke:black;stroke-width:0;stroke-linecap:butt;stroke-linejoin:miter;stroke-miterlimit:4;stroke-opacity:1;stroke-dasharray:none" />
  </g>
  <path
     inkscape:connector-curvature="0"
     id="path3172-8"
     style="opacity:0.3;fill:white;fill-rule:evenodd"
     d="M 19,14.625 12,8.5 V 12 L 6,9.375 14,15.5 v -2.625 l 5,1.75 z" />
  <path
     inkscape:connector-curvature="0"
     id="path3172"
     style="fill:#3c3c3c;fill-rule:evenodd"
     d="M 19,13.625 13.541781,8.8490584 12,7.5 12,11 6.0000004,8.375 14,14.5 14,11.875 z"
     sodipodi:nodetypes="cccccccc" />
</svg>
